<?xml version="1.0" encoding="UTF-8"?>
<svg version="1.1" xmlns="http://www.w3.org/2000/svg" width="1024" height="1024">
<path d="M0 0 C10.52077607 9.09991628 20.10369552 18.70572072 27.08251953 30.80126953 C27.73091797 31.81576172 28.37931641 32.83025391 29.04736328 33.87548828 C46.70356874 62.51175242 51.38631151 97.80266537 44.08251953 130.42626953 C38.55378294 153.5385104 27.66728975 173.75422944 14.63183594 193.43945312 C11.73140382 197.86094388 8.91324868 202.33497382 6.08251953 206.80126953 C3.75064805 210.46886713 1.41675094 214.13517355 -0.91748047 217.80126953 C-1.38621582 218.53812988 -1.85495117 219.27499023 -2.33789062 220.03417969 C-8.93827177 230.39083554 -15.79140784 240.56533003 -22.72045898 250.70483398 C-26.19124128 255.78401814 -29.6401807 260.87209234 -33.00439453 266.02246094 C-37.33741017 272.64931902 -42.01452726 278.92695669 -46.88232422 285.1706543 C-51.04341282 290.54722521 -54.8841305 296.09177968 -58.66748047 301.73876953 C-72.0020434 321.48985992 -72.0020434 321.48985992 -80.91748047 323.80126953 C-87.84228752 324.55670303 -93.22013625 322.77240569 -98.76123047 318.72314453 C-102.61952119 315.39957078 -105.41918279 311.36892615 -108.35498047 307.23876953 C-109.59224604 305.5270974 -110.8305618 303.81618398 -112.06982422 302.10595703 C-112.70388184 301.2277832 -113.33793945 300.34960938 -113.99121094 299.44482422 C-116.46861365 296.04491084 -119.00346523 292.69073143 -121.54370117 289.33764648 C-129.61489092 278.68157278 -137.32458712 267.80164846 -144.91748047 256.80126953 C-145.85996391 255.44304053 -146.80266003 254.08495908 -147.74560547 252.72705078 C-159.12349246 236.3017219 -170.15213421 219.63380173 -180.91748047 202.80126953 C-181.64813721 201.66093262 -181.64813721 201.66093262 -182.39355469 200.49755859 C-208.40123505 159.84437111 -227.16673281 119.61045061 -216.24951172 69.89892578 C-214.27242501 61.87642843 -211.29796323 54.32370899 -207.91748047 46.80126953 C-207.45599609 45.73908203 -206.99451172 44.67689453 -206.51904297 43.58251953 C-192.9480808 14.40102861 -166.7502673 -9.55145617 -136.74121094 -21.03125 C-91.47796461 -37.3444974 -37.57542975 -31.16566417 0 0 Z M-133.22998047 57.05126953 C-140.8929299 66.38289506 -146.09196875 76.05224903 -148.91748047 87.80126953 C-149.10955078 88.59791016 -149.30162109 89.39455078 -149.49951172 90.21533203 C-152.43387118 108.3699672 -147.96690737 126.81602638 -137.42529297 141.75439453 C-136.92771484 142.42986328 -136.43013672 143.10533203 -135.91748047 143.80126953 C-135.50240234 144.39423828 -135.08732422 144.98720703 -134.65966797 145.59814453 C-125.56577715 157.46921159 -110.08064723 164.35407351 -95.64794922 166.52001953 C-79.91317448 168.14076886 -62.69141163 165.40971455 -49.66748047 155.92626953 C-48.40965068 154.89407107 -47.15951409 153.8524222 -45.91748047 152.80126953 C-45.27423828 152.32431641 -44.63099609 151.84736328 -43.96826172 151.35595703 C-32.3275616 142.25379859 -25.29321255 127.12838849 -22.91748047 112.80126953 C-22.77052734 112.02912109 -22.62357422 111.25697266 -22.47216797 110.46142578 C-19.94399822 93.00629636 -26.0083995 75.61508601 -35.89404297 61.48486328 C-46.55500104 47.34571619 -62.02437005 40.0767503 -79.22216797 37.06298828 C-99.25911438 35.11737175 -119.42309235 42.32211383 -133.22998047 57.05126953 Z " fill="#FB3D29" transform="translate(597.91748046875,222.19873046875)"/>
<path d="M0 0 C0.33 0 0.66 0 1 0 C0.44510422 6.46891658 -0.40625223 12.83814782 -1.5 19.23828125 C-3.09677273 31.25150107 -3.14693705 43.22878156 -3.14044189 55.320755 C-3.14303001 57.26177647 -3.1460444 59.2027974 -3.1494453 61.1438176 C-3.1574662 66.44965684 -3.15930211 71.75548252 -3.16004276 77.0613271 C-3.16190193 82.79508454 -3.16945356 88.52883509 -3.17617798 94.2625885 C-3.18972696 106.78782311 -3.19578067 119.3130545 -3.20018864 131.83829522 C-3.20295692 139.66845978 -3.20719534 147.49862312 -3.21169281 155.32878685 C-3.22388107 177.03508724 -3.23421652 198.74138632 -3.2375679 220.44769001 C-3.23778953 221.84942582 -3.23801131 223.25116162 -3.23823325 224.65289743 C-3.23845389 226.05786624 -3.23867437 227.46283506 -3.2388947 228.86780387 C-3.23933723 231.68603917 -3.23978435 234.50427447 -3.24023438 237.32250977 C-3.24034377 238.02125978 -3.24045316 238.72000979 -3.24056586 239.43993404 C-3.24419352 262.07816853 -3.26010503 284.71637094 -3.28342474 307.35459314 C-3.30807852 331.33207597 -3.32173662 355.30953969 -3.32293582 379.28703564 C-3.32385007 392.34049213 -3.32953932 405.3939066 -3.34775543 418.44735146 C-3.36321689 429.56550972 -3.3682414 440.68361298 -3.36001733 451.80177996 C-3.35613213 457.46550527 -3.35693528 463.12911999 -3.37107468 468.79283142 C-3.4940343 521.08035263 1.8277814 574.76158475 40.8125 614 C41.87088177 615.00435764 42.93287318 616.00493889 44 617 C44.78375 617.804375 45.5675 618.60875 46.375 619.4375 C67.82798403 640.37969869 94.17792177 654.19410018 123.375 660.8125 C124.22239746 661.00763184 125.06979492 661.20276367 125.94287109 661.40380859 C142.47217181 664.8635717 159.44740878 665.29836385 176.27174377 665.25396729 C178.21839623 665.25627902 180.16504781 665.25946026 182.11169761 665.26342177 C187.39580458 665.27168058 192.67983823 665.26768565 197.96394527 665.26144934 C203.68794337 665.25688891 209.41192962 665.26392624 215.13592529 665.26940918 C226.32326361 665.27826662 237.51057497 665.27639756 248.69791431 665.2705839 C257.7957374 665.26605321 266.89355298 665.26546057 275.99137688 665.26763153 C277.28995227 665.267938 278.58852767 665.26824446 279.92645384 665.26856022 C282.565094 665.26919971 285.20373416 665.26984814 287.84237432 665.2705054 C311.83696415 665.27603592 335.83153988 665.27031668 359.82612742 665.2598202 C381.68804786 665.25032935 403.549945 665.25118074 425.41186523 665.26074219 C450.02717569 665.27147211 474.64247275 665.27564983 499.25778526 665.26951766 C501.88600313 665.26888061 504.51422101 665.26825187 507.14243889 665.26763153 C509.08176932 665.2671687 509.08176932 665.2671687 511.06027814 665.26669653 C520.14018519 665.26497481 529.22008393 665.26787336 538.2999897 665.27259064 C549.37524407 665.27821849 560.45047011 665.27664307 571.52572126 665.26602915 C577.16872827 665.26079817 582.81168816 665.25867149 588.45469475 665.26532745 C593.6330363 665.27134266 598.81128764 665.2679212 603.98962115 665.25737235 C605.85003594 665.25516172 607.71045856 665.25622109 609.5708682 665.26112393 C625.40500592 665.29960968 641.39276302 664.56076008 656.9375 661.3125 C658.14744629 661.06258301 658.14744629 661.06258301 659.38183594 660.80761719 C675.18734109 657.35681957 689.80719497 651.68248933 704 644 C704.969375 643.50886719 705.93875 643.01773438 706.9375 642.51171875 C720.21152181 635.66247784 731.37908609 626.38181185 742 616 C742.63413818 615.39212646 743.26827637 614.78425293 743.92163086 614.15795898 C764.85172855 593.77515184 777.82511164 566.57479415 784.8125 538.5 C785.00763184 537.73107422 785.20276367 536.96214844 785.40380859 536.16992188 C789.01660805 520.57079128 789.29705748 504.49881725 789.2784729 488.56843567 C789.2834891 486.58038076 789.28936871 484.59232788 789.29602563 482.60427779 C789.31167959 477.19724248 789.31524817 471.79025933 789.31667423 466.3832041 C789.32039407 460.53138951 789.33556217 454.67960269 789.34928894 448.82780457 C789.37148497 438.70769865 789.38654413 428.58760273 789.39665604 418.4674778 C789.41128634 403.83575937 789.43682867 389.20407202 789.46498732 374.57237478 C789.51055072 350.82926539 789.5470407 327.08614997 789.578125 303.34301758 C789.60832852 280.28864662 789.64268532 257.2342879 789.68261719 234.17993164 C789.68446369 233.11244205 789.68446369 233.11244205 789.6863475 232.02338701 C789.69871523 224.87607449 789.71116687 217.72876211 789.72367998 210.58144984 C789.74916471 196.0238391 789.77408961 181.46622741 789.79867554 166.90861511 C789.79980645 166.23939992 789.80093736 165.57018472 789.80210253 164.88069028 C789.87745352 120.25380776 789.93971663 75.6269051 790 31 C790.33 31 790.66 31 791 31 C791.06058594 31.90363281 791.12117187 32.80726563 791.18359375 33.73828125 C791.26738281 34.91777344 791.35117187 36.09726562 791.4375 37.3125 C791.51871094 38.48425781 791.59992187 39.65601563 791.68359375 40.86328125 C791.8867371 44.02590958 791.8867371 44.02590958 793 47 C793.37208524 48.47476121 793.72487917 49.95446924 794.0625 51.4375 C794.23910156 52.19933594 794.41570313 52.96117187 794.59765625 53.74609375 C795.18033582 57.01023077 795.02260456 59.87441911 794.4375 63.125 C793.72717679 65.9349229 793.72717679 65.9349229 795 68 C794.34 68 793.68 68 793 68 C793.32597168 68.52110352 793.65194336 69.04220703 793.98779297 69.57910156 C795.31284149 72.74822389 795.22541216 75.30301355 795.1953125 78.734375 C795.18886719 80.02988281 795.18242188 81.32539063 795.17578125 82.66015625 C795.15907193 84.02344019 795.14214206 85.38672144 795.125 86.75 C795.1149634 88.12889985 795.10583873 89.50780665 795.09765625 90.88671875 C795.07408093 94.25798882 795.0411727 97.62890636 795 101 C795.66 101.33 796.32 101.66 797 102 C796.67 102.598125 796.34 103.19625 796 103.8125 C794.79212012 106.05386471 794.79212012 106.05386471 795 109 C795.66 109.99 796.32 110.98 797 112 C796.34 112 795.68 112 795 112 C795.165 113.093125 795.33 114.18625 795.5 115.3125 C795.97571694 118.82091242 796.11462285 121.4141499 795.4375 124.875 C795.00401951 127.97128919 795.33131319 129.99090937 796 133 C795.67 133.66 795.34 134.32 795 135 C795.17531438 137.51576138 795.51538629 139.99214559 795.84375 142.4921875 C796 145 796 145 795.40625 147.1953125 C795.20515625 148.08863281 795.20515625 148.08863281 795 149 C795.66 149.66 796.32 150.32 797 151 C797 151.99 797 152.98 797 154 C796.34 154 795.68 154 795 154 C794.84850702 157.62885324 794.84850702 157.62885324 796 161 C795.814375 162.03125 795.62875 163.0625 795.4375 164.125 C795.04413687 167.60907342 795.11165347 168.94748755 796.0625 172.125 C797.03571887 176.147638 796.9812009 177.47786506 795 181 C795.66 181.66 796.32 182.32 797 183 C796.34 183.66 795.68 184.32 795 185 C795.33 185.99 795.66 186.98 796 188 C795.0625 190.6875 795.0625 190.6875 794 193 C794.66 193.33 795.32 193.66 796 194 C795.814375 194.7425 795.62875 195.485 795.4375 196.25 C794.99630929 199.02319878 795.31692301 200.35307668 796 203 C795.835 203.598125 795.67 204.19625 795.5 204.8125 C794.77166745 207.9989549 795.48528229 210.79731205 796 214 C796 216.83995124 795.8849447 219.2876903 795.5 222.0625 C794.93701373 225.83449702 794.93701373 225.83449702 795 229 C795.66 229.33 796.32 229.66 797 230 C796.50886719 230.81210937 796.50886719 230.81210937 796.0078125 231.640625 C794.78335233 234.50719067 794.80107854 236.6452987 794.875 239.75 C794.90207031 241.22726562 794.90207031 241.22726562 794.9296875 242.734375 C794.95289063 243.48203125 794.97609375 244.2296875 795 245 C795.66 245.33 796.32 245.66 797 246 C796.34 246.66 795.68 247.32 795 248 C795.66 248.33 796.32 248.66 797 249 C796.91621094 249.60328125 796.83242188 250.2065625 796.74609375 250.828125 C796.59333984 252.02695312 796.59333984 252.02695312 796.4375 253.25 C796.33308594 254.03890625 796.22867188 254.8278125 796.12109375 255.640625 C795.99972651 258.00532874 796.30366743 259.7511037 797 262 C796.34 262 795.68 262 795 262 C795.34786708 263.97536745 795.34786708 263.97536745 796 266 C796.66 266.33 797.32 266.66 798 267 C797.625 269.9375 797.625 269.9375 797 273 C796.01 273.495 796.01 273.495 795 274 C795.6916516 277.56043993 795.6916516 277.56043993 796.625 281.0625 C797 283 797 283 796.49609375 284.765625 C795.87843317 287.54752936 796.13168324 289.85963886 796.4375 292.6875 C796.53933594 293.66074219 796.64117188 294.63398437 796.74609375 295.63671875 C796.82988281 296.41660156 796.91367187 297.19648437 797 298 C797 299 797 299 795.875 301.25 C794.76852959 304.72747843 795.66307899 305.69701868 797 309 C796.67794257 311.33491639 796.34541851 313.66842508 796 316 C796.66 316.99 797.32 317.98 798 319 C797.3409159 320.66967972 796.67349161 322.33607955 796 324 C796.29519768 326.7336432 796.29519768 326.7336432 797 329 C796.34 329 795.68 329 795 329 C795.350625 330.258125 795.70125 331.51625 796.0625 332.8125 C797.1396878 337.54763802 796.85545749 341.6407061 796.19140625 346.421875 C795.98752204 349.16807046 796.39368572 351.3269064 797 354 C797 354.99 797 355.98 797 357 C797.66 357.66 798.32 358.32 799 359 C798.34 359.66 797.68 360.32 797 361 C796.35781372 364.8531177 796 368.41003712 796 372.3125 C796 375 796 375 795 378 C795.3924588 380.32778063 795.3924588 380.32778063 796.0625 382.8125 C797.02464957 387.16447454 796.95644389 389.86972957 795 394 C795.66 394.33 796.32 394.66 797 395 C796.67 395.33 796.34 395.66 796 396 C795.85363946 399.36629251 795.92806521 401.78419562 797 405 C796.34 405 795.68 405 795 405 C795.350625 405.495 795.70125 405.99 796.0625 406.5 C797.07025694 409.18735184 796.97115389 410.2887617 796.5625 413.0625 C795.71583303 416.89285508 795.71583303 416.89285508 797 420 C796.34 420 795.68 420 795 420 C794.67 421.32 794.34 422.64 794 424 C794.66 424.33 795.32 424.66 796 425 C795.34 425 794.68 425 794 425 C794.7734375 426.11375 794.7734375 426.11375 795.5625 427.25 C797.23561878 430.45074896 796.96075687 430.73342664 796 434 C796.27313343 436.34114367 796.59802999 438.67750658 797 441 C796.34 440.67 795.68 440.34 795 440 C795 441.32 795 442.64 795 444 C795.66 444.33 796.32 444.66 797 445 C797 449 797 449 796 452 C795.34 452 794.68 452 794 452 C794 452.66 794 453.32 794 454 C794.99 454.33 795.98 454.66 797 455 C796.67 456.98 796.34 458.96 796 461 C795.34 461 794.68 461 794 461 C794.34227572 463.97065509 794.34227572 463.97065509 795 467 C795.66 467.33 796.32 467.66 797 468 C796.34 468.66 795.68 469.32 795 470 C795.33 470.66 795.66 471.32 796 472 C795.34 472 794.68 472 794 472 C794.33 472.763125 794.66 473.52625 795 474.3125 C796 477 796 477 796 480 C795.34 480 794.68 480 794 480 C794 480.66 794 481.32 794 482 C794.66 482.33 795.32 482.66 796 483 C795.814375 483.86625 795.62875 484.7325 795.4375 485.625 C794.68305993 490.66838018 795.35783806 495.64845437 795.84375 500.6953125 C795.98715864 503.72840519 795.62771328 506.06020948 795 509 C795.33 509.66 795.66 510.32 796 511 C795.38024152 513.34622853 794.70812814 515.67891331 794 518 C793.64628502 519.66246041 793.30404678 521.32774271 793 523 C793.66 523 794.32 523 795 523 C794.814375 523.763125 794.62875 524.52625 794.4375 525.3125 C793.77180827 528.08967375 793.77180827 528.08967375 795 531 C794.67 531.78375 794.34 532.5675 794 533.375 C792.75828935 535.9289189 792.75828935 535.9289189 793.5 538.4375 C794.15610603 541.80004342 793.09428481 543.78151527 792 547 C791.95907063 549.33297433 791.95758277 551.66705225 792 554 C791.33683108 558.53165431 789.81203544 562.7297934 788.2734375 567.03125 C786.17327566 573.05595669 784 579.56021984 784 586 C783.34 586 782.68 586 782 586 C782.0928125 587.11375 782.0928125 587.11375 782.1875 588.25 C781.96173879 591.56116444 780.98208865 592.40803792 779 595 C778.67 596.155 778.34 597.31 778 598.5 C777.07260941 601.74586706 776.19465047 603.50607901 774 606 C774.33 606.66 774.66 607.32 775 608 C774.34 608.33 773.68 608.66 773 609 C772.27306096 610.97888961 771.60183749 612.97954558 771 615 C770.34 615 769.68 615 769 615 C768.3503125 616.7015625 768.3503125 616.7015625 767.6875 618.4375 C767.130625 619.613125 766.57375 620.78875 766 622 C765.01 622.33 764.02 622.66 763 623 C762.30741771 624.99117408 761.64252365 626.9921136 761 629 C759.38581841 630.95046942 758.25962614 631.87018693 756 633 C755.690625 633.66 755.38125 634.32 755.0625 635 C754 637 754 637 751 638 C751.66 638.66 752.32 639.32 753 640 C751.35 640.33 749.7 640.66 748 641 C747.67 641.99 747.34 642.98 747 644 C746.34 644 745.68 644 745 644 C744.67 645.65 744.34 647.3 744 649 C743.0409375 649.185625 743.0409375 649.185625 742.0625 649.375 C741.381875 649.58125 740.70125 649.7875 740 650 C739.67 650.66 739.34 651.32 739 652 C738.34 652 737.68 652 737 652 C737 652.99 737 653.98 737 655 C736.01 655.33 735.02 655.66 734 656 C733.236875 656.763125 732.47375 657.52625 731.6875 658.3125 C728.98456057 661.01543943 726.17990867 662.9041511 723 665 C722.67 665.66 722.34 666.32 722 667 C720.33871537 667.35919668 718.67099977 667.68911632 717 668 C713.82547916 669.25797836 713.82547916 669.25797836 712 672 C711.34 672 710.68 672 710 672 C709.67 672.99 709.34 673.98 709 675 C705.86650268 676.04449911 705.01031744 675.93423645 702 675 C702 675.66 702 676.32 702 677 C699.921188 678.00936536 697.8367638 679.00717846 695.75 680 C694.00976562 680.8353125 694.00976562 680.8353125 692.234375 681.6875 C689 683 689 683 685 683 C685 683.66 685 684.32 685 685 C684.24074219 685.12117187 683.48148438 685.24234375 682.69921875 685.3671875 C681.20841797 685.61855469 681.20841797 685.61855469 679.6875 685.875 C678.70136719 686.03742187 677.71523438 686.19984375 676.69921875 686.3671875 C673.79940173 686.88085454 673.79940173 686.88085454 671 689 C668.95703125 689.1953125 668.95703125 689.1953125 666.8125 689.125 C665.554375 689.08375 664.29625 689.0425 663 689 C662.67 689.99 662.34 690.98 662 692 C661.38125 691.79375 660.7625 691.5875 660.125 691.375 C659.073125 691.189375 659.073125 691.189375 658 691 C657.34 691.66 656.68 692.32 656 693 C654.68 693 653.36 693 652 693 C649.47337321 693.30994765 646.95691683 693.64043039 644.4375 694 C637.3902027 695 637.3902027 695 634 695 C632.2365625 695.0309375 632.2365625 695.0309375 630.4375 695.0625 C627 695 627 695 625 694 C625 694.66 625 695.32 625 696 C620.33367936 697.55544021 616.53441459 695.51147153 612 694 C611.67 694.66 611.34 695.32 611 696 C608.9375 696.625 608.9375 696.625 607 697 C607 696.34 607 695.68 607 695 C606.41992188 695.0721875 605.83984375 695.144375 605.2421875 695.21875 C600.78874618 695.74787174 596.48845106 696 592 696 C591.34 696.33 590.68 696.66 590 697 C590 696.34 590 695.68 590 695 C589.13375 695.165 588.2675 695.33 587.375 695.5 C584 696 584 696 580.75 695.9375 C577.85289148 695.68653667 577.85289148 695.68653667 576 698 C576 697.34 576 696.68 576 696 C574.72640625 696.16242187 573.4528125 696.32484375 572.140625 696.4921875 C566.99897978 697.06191561 561.91874723 697.14835277 556.75 697.125 C555.87859375 697.12886719 555.0071875 697.13273438 554.109375 697.13671875 C549.92329328 697.13033753 546.09297577 696.969389 542 696 C541.01 696 540.02 696 539 696 C533.33333333 696 527.66666667 696 522 696 C521.175 696.165 520.35 696.33 519.5 696.5 C515.79192419 697.24161516 512.38684967 696.95659169 508.6875 696.4375 C504.61427467 695.94683094 501.05692513 696.33764488 497 697 C496.34 696.67 495.68 696.34 495 696 C494.67 696.66 494.34 697.32 494 698 C494 697.01 494 696.02 494 695 C493.01 695.144375 492.02 695.28875 491 695.4375 C490.36320312 695.52644531 489.72640625 695.61539063 489.0703125 695.70703125 C487.68862131 695.90255359 486.30834108 696.1083164 484.9296875 696.32421875 C480.94125273 696.90807707 477.89922387 696.85592719 474 696 C469.85599276 695.79125337 465.90333029 695.84058877 461.8125 696.5625 C459 697 459 697 456.1875 696.5 C452.68529633 695.95063472 449.8690586 696.28329659 446.3828125 696.73828125 C436.62096774 697.81048387 436.62096774 697.81048387 433 696 C432.195625 696.165 431.39125 696.33 430.5625 696.5 C428 697 428 697 425 696 C424.34 696.66 423.68 697.32 423 698 C422.34 697.34 421.68 696.68 421 696 C418.69 696.66 416.38 697.32 414 698 C414 697.34 414 696.68 414 696 C413.505 696.165 413.01 696.33 412.5 696.5 C407.94036703 697.41192659 403.44131663 697.48043888 399 696 C398.34 696.33 397.68 696.66 397 697 C394.99199544 696.71887936 392.98985949 696.38932033 391 696 C390.67 696.66 390.34 697.32 390 698 C389.16855469 697.76603516 389.16855469 697.76603516 388.3203125 697.52734375 C387.59585937 697.33269531 386.87140625 697.13804687 386.125 696.9375 C385.40570313 696.74027344 384.68640625 696.54304687 383.9453125 696.33984375 C381.92726407 695.78867393 381.92726407 695.78867393 380 697 C377.6599583 696.71758117 375.32495277 696.38749213 373 696 C372.67 696.66 372.34 697.32 372 698 C371.44054687 697.66226563 370.88109375 697.32453125 370.3046875 696.9765625 C367.56571285 695.81598002 366.04821573 695.9652034 363.125 696.375 C359.37739668 696.84414033 355.78388122 697.09228979 352 697 C350.08590163 697 348.17175359 697.01061854 346.2578125 697.03515625 C344.70707031 697.04869141 344.70707031 697.04869141 343.125 697.0625 C342.09632813 697.07410156 341.06765625 697.08570313 340.0078125 697.09765625 C337.21262178 697.0069033 334.71683667 696.63660195 332 696 C331.67 696.66 331.34 697.32 331 698 C330.13375 697.649375 329.2675 697.29875 328.375 696.9375 C324.68912516 695.91364588 322.69815384 696.29184288 319 697 C317.32457024 696.71395102 315.65614657 696.38218767 314 696 C311.44401859 695.87220093 309.33269332 695.91667572 306.84765625 696.5390625 C303.15533382 697.13672237 299.63869401 696.81889298 295.9375 696.5 C289.91662186 695.97489892 289.91662186 695.97489892 284 697 C281.99787771 696.67966043 279.99760305 696.34740923 278 696 C277.34 696.33 276.68 696.66 276 697 C274.948125 696.62875 273.89625 696.2575 272.8125 695.875 C267.90025241 694.74759891 266.34315032 695.69547126 262 698 C261.67 697.34 261.34 696.68 261 696 C260.13375 696.165 259.2675 696.33 258.375 696.5 C255.18774801 696.97218548 252.21514973 697.07655118 249 697 C249 696.34 249 695.68 249 695 C248.236875 695.33 247.47375 695.66 246.6875 696 C241.51616085 697.92421922 235.75616738 696.58175558 230.34765625 696.12109375 C227.45553191 696.01647782 225.71140594 696.23724309 223 697 C221.16848121 697.09157594 219.33379984 697.13003791 217.5 697.125 C216.5615625 697.12757813 215.623125 697.13015625 214.65625 697.1328125 C212 697 212 697 210.12890625 696.5 C206.89916819 695.74145601 203.74760749 695.86852863 200.4375 695.875 C199.76525391 695.87113281 199.09300781 695.86726562 198.40039062 695.86328125 C195.32500248 695.86938927 192.93973687 696.02008771 190 697 C187.99363529 696.70740515 185.99285937 696.37366113 184 696 C181.21069911 696 178.42204305 696.01662394 175.6328125 696.03515625 C173.46354252 696.04447213 171.29427163 696.0535782 169.125 696.0625 C168.03574219 696.07087891 166.94648438 696.07925781 165.82421875 696.08789062 C164.77105469 696.09111328 163.71789062 696.09433594 162.6328125 696.09765625 C161.67262207 696.10289307 160.71243164 696.10812988 159.72314453 696.11352539 C157 696 157 696 154.31591797 695.45874023 C151.93623951 694.83047039 151.93623951 694.83047039 149.3125 695.5625 C148.549375 695.706875 147.78625 695.85125 147 696 C146.34 695.34 145.68 694.68 145 694 C144.01 694.33 143.02 694.66 142 695 C140.65812182 694.3507041 139.32520503 693.68268138 138 693 C134.2236068 692.7018576 134.2236068 692.7018576 132 694 C131.34 693.34 130.68 692.68 130 692 C127.22184257 691.28765194 124.87628285 691 122 691 C120.68 691 119.36 691 118 691 C118 690.34 118 689.68 118 689 C116.68 689.33 115.36 689.66 114 690 C114 689.34 114 688.68 114 688 C112.700625 688.061875 112.700625 688.061875 111.375 688.125 C107.84133629 687.99412357 105.30733791 687.19627116 102 686 C100.33911955 685.63893903 98.67381019 685.29537827 97 685 C97 684.34 97 683.68 97 683 C96.01 683 95.02 683 94 683 C94 682.34 94 681.68 94 681 C93.13375 681.2475 92.2675 681.495 91.375 681.75 C86.99696655 682.07429877 85.43376229 680.57532172 82 678 C81.34 678 80.68 678 80 678 C80 677.34 80 676.68 80 676 C78.35 676 76.7 676 75 676 C75 675.01 75 674.02 75 673 C72.69 673 70.38 673 68 673 C68 672.01 68 671.02 68 670 C67.34 670 66.68 670 66 670 C65.67 669.34 65.34 668.68 65 668 C63.33927151 667.31867549 61.672233 666.65257873 60 666 C59.34 665.34 58.68 664.68 58 664 C57.01 663.67 56.02 663.34 55 663 C50.67937095 660.89237607 49.72164176 659.36149246 48 655 C45.95894361 654.11306697 45.95894361 654.11306697 44 654 C44 653.01 44 652.02 44 651 C43.34 651 42.68 651 42 651 C42 650.34 42 649.68 42 649 C41.236875 648.731875 40.47375 648.46375 39.6875 648.1875 C37.11011382 647.04865495 35.73045136 646.18583329 34 644 C34 643.34 34 642.68 34 642 C33.360625 641.773125 32.72125 641.54625 32.0625 641.3125 C30 640 30 640 29.25 637.375 C29.1675 636.59125 29.085 635.8075 29 635 C27.68 634.67 26.36 634.34 25 634 C25 633.01 25 632.02 25 631 C24.34 631 23.68 631 23 631 C23 630.34 23 629.68 23 629 C22.34 629 21.68 629 21 629 C21.33 627.68 21.66 626.36 22 625 C21.34 625 20.68 625 20 625 C19.773125 624.278125 19.54625 623.55625 19.3125 622.8125 C17.23096303 618.35206364 14.04684244 615.69789496 10 613 C10.99 613 11.98 613 13 613 C13 612.34 13 611.68 13 611 C12.360625 610.71125 11.72125 610.4225 11.0625 610.125 C9 609 9 609 8 607 C7.6803125 606.39542969 7.360625 605.79085937 7.03125 605.16796875 C5.61104526 602.18231106 4.73295915 599.08607632 3.78125 595.92578125 C3.16970394 593.80955877 3.16970394 593.80955877 1 593 C0.27113266 590.2303041 0 587.87137415 0 585 C-0.66 585.66 -1.32 586.32 -2 587 C-2.0825 585.700625 -2.165 584.40125 -2.25 583.0625 C-2.72268492 578.52186 -4.13765209 575.05665174 -6.2578125 571.04296875 C-7.14329557 568.60556008 -6.85429776 567.4060918 -6 565 C-6.66 564.67 -7.32 564.34 -8 564 C-7.67 563.34 -7.34 562.68 -7 562 C-7.66 562 -8.32 562 -9 562 C-8.67 561.34 -8.34 560.68 -8 560 C-8.33 559.67 -8.66 559.34 -9 559 C-8.71325582 556.99279077 -8.38133299 554.9914056 -8 553 C-8.66 552.67 -9.32 552.34 -10 552 C-9.67 551.34 -9.34 550.68 -9 550 C-9.495 548.576875 -9.495 548.576875 -10 547.125 C-11.02810743 543.91216429 -11.01804294 543.05412881 -10 540 C-9.822714 536.01592804 -9.822714 536.01592804 -11 532.375 C-12.17586507 527.42135567 -12.19147665 522.56327129 -12.1875 517.5 C-12.18814453 516.6857959 -12.18878906 515.8715918 -12.18945312 515.03271484 C-12.13469199 509.13469199 -12.13469199 509.13469199 -11 508 C-11.36747494 502.8238097 -11.36747494 502.8238097 -13 498 C-12.835 497.360625 -12.67 496.72125 -12.5 496.0625 C-11.76397597 493.82334576 -11.76397597 493.82334576 -13 491 C-12.34 490.67 -11.68 490.34 -11 490 C-11.0721875 489.10925781 -11.144375 488.21851563 -11.21875 487.30078125 C-12.00479814 476.15418196 -12.07035836 465.06495536 -11.96289062 453.8918457 C-11.95451172 452.68488037 -11.94613281 451.47791504 -11.9375 450.234375 C-11.92589844 449.15381836 -11.91429688 448.07326172 -11.90234375 446.95996094 C-11.91326371 444.07488051 -11.91326371 444.07488051 -12.49780273 441.59912109 C-13.16944774 438.12302353 -13.1233334 434.7043964 -13.09765625 431.1796875 C-13.0962413 430.43921173 -13.09482635 429.69873596 -13.09336853 428.93582153 C-13.08779852 426.58217224 -13.07526262 424.22862018 -13.0625 421.875 C-13.05748013 420.28515764 -13.05291807 418.69531377 -13.04882812 417.10546875 C-13.04067467 414.19773423 -13.02999623 411.29003584 -13.01586914 408.38232422 C-13.00588772 406.25489965 -13 404.12744798 -13 402 C-12.83862343 400.18974422 -12.67249777 398.3799106 -12.50390625 396.5703125 C-11.77794056 387.34401838 -11.89227944 378.12388444 -11.9375 368.875 C-11.94252915 367.08073043 -11.94708953 365.28645948 -11.95117188 363.4921875 C-11.95927597 360.23289207 -11.96988823 356.97362985 -11.98413086 353.71435547 C-12.01265494 347.03796483 -12.01265494 347.03796483 -11 344 C-11.66 343.67 -12.32 343.34 -13 343 C-12.34 341.02 -11.68 339.04 -11 337 C-11.66 336.67 -12.32 336.34 -13 336 C-12.87431641 335.07767578 -12.87431641 335.07767578 -12.74609375 334.13671875 C-12.64425781 333.32847656 -12.54242188 332.52023437 -12.4375 331.6875 C-12.33308594 330.88699219 -12.22867188 330.08648438 -12.12109375 329.26171875 C-11.85244822 326.83182884 -11.85244822 326.83182884 -13 324 C-12.67 323.67 -12.34 323.34 -12 323 C-11.95679753 320.66706666 -11.95977609 318.3329866 -12 316 C-12 315.01 -12 314.02 -12 313 C-12.020625 311.845 -12.04125 310.69 -12.0625 309.5 C-12 306 -12 306 -11 303 C-11.495 301.515 -11.495 301.515 -12 300 C-12 299.01 -12 298.02 -12 297 C-12.27505194 294.22832274 -12.57380348 291.45993138 -12.87890625 288.69140625 C-12.99338024 286.14712943 -12.70155382 284.41703213 -12 282 C-11.8610216 278.59502909 -11.91720326 276.24839022 -13 273 C-13.09398043 270.96007192 -13.12992069 268.91708586 -13.125 266.875 C-13.12757812 265.79992187 -13.13015625 264.72484375 -13.1328125 263.6171875 C-13 261 -13 261 -12 260 C-12.09017996 257.80949979 -12.24666208 255.621534 -12.4375 253.4375 C-12.53933594 252.23996094 -12.64117187 251.04242188 -12.74609375 249.80859375 C-12.82988281 248.88175781 -12.91367188 247.95492187 -13 247 C-12.34 247 -11.68 247 -11 247 C-11.0721875 246.35933594 -11.144375 245.71867188 -11.21875 245.05859375 C-12.6313416 231.8940248 -12.6313416 231.8940248 -11 227 C-11.66 226.67 -12.32 226.34 -13 226 C-12.87431641 225.11248047 -12.87431641 225.11248047 -12.74609375 224.20703125 C-12.19110576 219.90060543 -11.76773348 216.24447356 -13 212 C-12.34 212 -11.68 212 -11 212 C-11 211.34 -11 210.68 -11 210 C-11.66 209.67 -12.32 209.34 -13 209 C-12.7215625 207.4221875 -12.7215625 207.4221875 -12.4375 205.8125 C-12.04151227 202.36174976 -12.28440316 200.30963541 -13 197 C-12.814375 196.319375 -12.62875 195.63875 -12.4375 194.9375 C-11.76812691 192.93970867 -11.76812691 192.93970867 -13 191.0625 C-14.31040647 188.35978665 -13.78610392 186.82997412 -13 184 C-12.34 184 -11.68 184 -11 184 C-11.2475 182.4840625 -11.2475 182.4840625 -11.5 180.9375 C-12.70886076 171.41772152 -12.70886076 171.41772152 -11 168 C-11.66 168 -12.32 168 -13 168 C-12.87431641 166.38931641 -12.87431641 166.38931641 -12.74609375 164.74609375 C-12.6428397 163.30992378 -12.53999706 161.87372419 -12.4375 160.4375 C-12.38142578 159.73302734 -12.32535156 159.02855469 -12.26757812 158.30273438 C-12.02523233 154.79679851 -12.03003976 151.79147584 -12.53515625 148.28515625 C-12.99631395 145.02605013 -12.70344956 143.16070486 -12 140 C-11.90670535 137.32189468 -11.86018425 134.67671172 -11.875 132 C-11.87113281 131.30132812 -11.86726563 130.60265625 -11.86328125 129.8828125 C-11.86881054 126.95228832 -11.96099225 124.19419074 -12.5390625 121.31640625 C-13.06471909 118.67475917 -12.86196118 116.59873732 -12.5 113.9375 C-12.04834329 110.60653177 -12.02108751 108.21834242 -13 105 C-13.67280386 101.83782187 -14.11856418 99.5532995 -13.4375 96.375 C-12.91138029 93.51892157 -13.48169778 92.41142117 -15 90 C-14.01 89.505 -14.01 89.505 -13 89 C-12.34227572 85.97065509 -12.34227572 85.97065509 -12 83 C-12.495 83.495 -12.495 83.495 -13 84 C-13.33 83.01 -13.66 82.02 -14 81 C-13.505 80.505 -13.505 80.505 -13 80 C-12.95919217 78.00041636 -12.95745644 75.99954746 -13 74 C-12.34 74 -11.68 74 -11 74 C-11.185625 73.38125 -11.37125 72.7625 -11.5625 72.125 C-12 70 -12 70 -11 68 C-11.66 67.67 -12.32 67.34 -13 67 C-11.00898588 48.69961489 -11.00898588 48.69961489 -10 45 C-9.01 44.505 -9.01 44.505 -8 44 C-8.66 43.34 -9.32 42.68 -10 42 C-9.34 41.34 -8.68 40.68 -8 40 C-8 38.68 -8 37.36 -8 36 C-8 33 -8 30 -8 27 C-7.34 27 -6.68 27 -6 27 C-5.505 22.545 -5.505 22.545 -5 18 C-4.67 18 -4.34 18 -4 18 C-2.68 12.06 -1.36 6.12 0 0 Z M795 266 C796 268 796 268 796 268 Z M794 293 C795 295 795 295 795 295 Z M795 339 C796 341 796 341 796 341 Z M786 568 C787 570 787 570 787 570 Z M765 619 C766 621 766 621 766 621 Z M31 636 C32 638 32 638 32 638 Z M389 694 C390 696 390 696 390 696 Z " fill="#EAEAEA" transform="translate(119,236)"/>
<path d="M0 0 C17.49 0 34.98 0 53 0 C55.7225 7.5796875 55.7225 7.5796875 58.5 15.3125 C63.78008168 29.966718 69.1698993 44.57736947 74.62207031 59.16833496 C78.68195853 70.03638114 82.71078041 80.91476483 86.6796875 91.81640625 C87.07549011 92.90354919 87.47129272 93.99069214 87.87908936 95.11077881 C89.48622363 99.52659211 91.09283696 103.94259429 92.69848633 108.35894775 C96.96222194 120.0785543 101.2657461 131.77955727 105.7265625 143.42578125 C106.10145813 144.40468826 106.47635376 145.38359528 106.86260986 146.39216614 C108.62782535 150.99348386 110.40252925 155.59090861 112.18945312 160.18383789 C112.81642175 161.80744844 113.44337575 163.43106464 114.0703125 165.0546875 C114.35476227 165.77719193 114.63921204 166.49969635 114.93228149 167.24409485 C116.48215842 171.27060742 117.27739273 174.66435636 118 179 C103.48 179 88.96 179 74 179 C68.625 163.1875 68.625 163.1875 66.93994141 158.20776367 C66.49416062 156.90271396 66.04805618 155.59777474 65.6015625 154.29296875 C65.37428467 153.61737915 65.14700684 152.94178955 64.9128418 152.24572754 C63.8564673 149.17102539 62.81652867 146.724793 61 144 C57.9270027 143.55920384 57.9270027 143.55920384 54.25537109 143.65942383 C53.56257553 143.65898575 52.86977997 143.65854767 52.1559906 143.65809631 C49.86152149 143.66018968 47.56777926 143.68354532 45.2734375 143.70703125 C43.68446248 143.71262529 42.09548229 143.71689629 40.50650024 143.71989441 C36.32077797 143.73135842 32.13536714 143.76083869 27.94976807 143.79400635 C23.68009657 143.82467389 19.41037484 143.83839263 15.140625 143.85351562 C6.76027361 143.88570716 -1.61982447 143.93692197 -10 144 C-10.14372543 144.75649338 -10.28745087 145.51298676 -10.43553162 146.29240417 C-11.1349145 149.64714683 -12.19316925 152.8024655 -13.28515625 156.05078125 C-13.68871338 157.25645752 -14.09227051 158.46213379 -14.50805664 159.7043457 C-15.02102295 161.22503662 -15.53398926 162.74572754 -16.0625 164.3125 C-17.691875 169.159375 -19.32125 174.00625 -21 179 C-35.85 179 -50.7 179 -66 179 C-61.93436559 167.3839017 -57.8789119 155.8527787 -53.43133545 144.39196777 C-48.51724183 131.71895516 -43.77876182 118.99507448 -39.21484375 106.19140625 C-36.83182585 99.50764401 -34.38687293 92.84718026 -31.9375 86.1875 C-28.62683529 77.18215806 -25.33178049 68.17138472 -22.05859375 59.15234375 C-21.71652893 58.20982254 -21.37446411 57.26730133 -21.02203369 56.29621887 C-20.323302 54.37085005 -19.62457154 52.44548079 -18.92584229 50.52011108 C-9.39577607 24.26441056 -9.39577607 24.26441056 -4.5625 11.375 C-4.20333496 10.41674316 -3.84416992 9.45848633 -3.47412109 8.47119141 C-1.13736426 2.27472852 -1.13736426 2.27472852 0 0 Z M25 42 C19.64060065 57.02199971 14.29689641 72.04936579 9.08612061 87.12368774 C8.44996334 88.96394638 7.81215627 90.80363443 7.17431641 92.64331055 C6.59109619 94.33580933 6.59109619 94.33580933 5.99609375 96.0625 C5.65763428 97.04347656 5.3191748 98.02445313 4.97045898 99.03515625 C3.89223398 102.32923537 2.95219811 105.66730662 2 109 C17.51 109 33.02 109 49 109 C47.35742131 101.51312779 47.35742131 101.51312779 45.16821289 94.30004883 C44.81767349 93.27901566 44.46713409 92.25798248 44.10597229 91.20600891 C43.731978 90.13384628 43.3579837 89.06168365 42.97265625 87.95703125 C42.58307236 86.82980148 42.19348846 85.70257172 41.792099 84.54118347 C40.97164703 82.17122949 40.14873304 79.80212655 39.32348633 77.43383789 C38.06359941 73.81565733 36.81349047 70.19420394 35.56445312 66.57226562 C34.76360153 64.26281938 33.96218841 61.95356777 33.16015625 59.64453125 C32.60220116 58.02717827 32.60220116 58.02717827 32.03297424 56.37715149 C30.29347976 51.40210463 28.52674455 46.63012631 26 42 C25.67 42 25.34 42 25 42 Z " fill="#1A6C40" transform="translate(710,574)"/>
<path d="M0 0 C17.16 0 34.32 0 52 0 C54.90698141 6.97675538 57.78652664 13.89885554 60.41796875 20.97265625 C60.71644714 21.76955872 61.01492554 22.56646118 61.32244873 23.38751221 C62.2796754 25.94502169 63.23367435 28.50372039 64.1875 31.0625 C64.86191303 32.86683574 65.53647531 34.67111571 66.21118164 36.4753418 C70.18961166 47.12007804 74.1510979 57.77108708 78.08959961 68.43066406 C80.60890096 75.24898015 83.1384242 82.06338456 85.67578125 88.875 C86.00425552 89.75682953 86.3327298 90.63865906 86.67115784 91.54721069 C87.35200401 93.37496157 88.03285636 95.20271016 88.7137146 97.03045654 C94.94649926 113.76318073 101.14989309 130.50634429 107.30761719 147.2668457 C110.2106977 155.16528212 113.13337395 163.05557897 116.10342407 170.92912292 C117.11236774 173.60796088 118.09465456 176.28396367 119 179 C104.15 179 89.3 179 74 179 C72.19714464 174.19238572 70.42847044 169.41994249 68.7734375 164.56640625 C68.3815625 163.42365234 67.9896875 162.28089844 67.5859375 161.10351562 C66.7694559 158.7159654 65.95438213 156.32793332 65.140625 153.93945312 C64.75132812 152.80572266 64.36203125 151.67199219 63.9609375 150.50390625 C63.60821777 149.47080322 63.25549805 148.4377002 62.89208984 147.37329102 C62.21586946 145.07817117 62.21586946 145.07817117 61 144 C58.82194281 143.90570658 56.6407872 143.88257462 54.46069336 143.88647461 C53.77779739 143.88632858 53.09490143 143.88618256 52.39131165 143.8860321 C50.12412386 143.88673124 47.85701726 143.8945236 45.58984375 143.90234375 C44.02185613 143.90420793 42.45386793 143.90563183 40.88587952 143.90663147 C36.75123497 143.91045666 32.61662534 143.92028694 28.48199463 143.93133545 C24.26599602 143.94154956 20.04999178 143.94612909 15.83398438 143.95117188 C7.55597353 143.96190921 -0.7220089 143.97898564 -9 144 C-9.25692627 144.77601563 -9.51385254 145.55203125 -9.77856445 146.3515625 C-10.95493079 149.90157822 -12.13369547 153.45079319 -13.3125 157 C-13.71662109 158.22074219 -14.12074219 159.44148437 -14.53710938 160.69921875 C-15.13168945 162.48779297 -15.13168945 162.48779297 -15.73828125 164.3125 C-16.09962158 165.40175781 -16.46096191 166.49101563 -16.83325195 167.61328125 C-18.14971824 171.43458704 -19.58085906 175.21562416 -21 179 C-35.52 179 -50.04 179 -65 179 C-60.48323211 166.09494889 -55.9660995 153.19111865 -51.375 140.3125 C-50.91377747 139.01812515 -50.91377747 139.01812515 -50.4432373 137.69760132 C-44.05072457 119.77828414 -37.46756041 101.93038027 -30.87237549 84.08486938 C-24.5085541 66.86223217 -18.24189393 49.61426057 -12.15869141 32.29052734 C-10.10469221 26.4574466 -8.02404302 20.63400539 -5.9375 14.8125 C-5.3811084 13.25015625 -5.3811084 13.25015625 -4.81347656 11.65625 C-4.47155273 10.70363281 -4.12962891 9.75101563 -3.77734375 8.76953125 C-3.48077881 7.94042236 -3.18421387 7.11131348 -2.87866211 6.25708008 C-2.04579694 4.11764175 -1.02672886 2.05345772 0 0 Z M25 41 C24.52542358 42.4394397 24.52542358 42.4394397 24.04125977 43.90795898 C18.47287733 60.78106583 12.90684504 77.64385633 6.76782227 94.32006836 C6.26013306 95.70270874 6.26013306 95.70270874 5.7421875 97.11328125 C5.4519873 97.89485596 5.16178711 98.67643066 4.86279297 99.48168945 C3.78895076 102.61600819 2.91019762 105.81430834 2 109 C17.84 109 33.68 109 50 109 C47.02468851 99.19020402 47.02468851 99.19020402 43.73828125 89.51953125 C43.34576172 88.43003174 42.95324219 87.34053223 42.54882812 86.21801758 C42.14083984 85.09419678 41.73285156 83.97037598 41.3125 82.8125 C38.62512783 75.3723671 35.95948858 67.92870514 33.41796875 60.4375 C33.0108667 59.24020264 32.60376465 58.04290527 32.18432617 56.80932617 C31.40627415 54.5120598 30.6341135 52.21278807 29.8684082 49.91137695 C29.5199585 48.88488037 29.17150879 47.85838379 28.8125 46.80078125 C28.50957031 45.89497314 28.20664062 44.98916504 27.89453125 44.0559082 C27.18554184 41.82538332 27.18554184 41.82538332 25 41 Z " fill="#1A6C41" transform="translate(404,574)"/>
<path d="M0 0 C49.83 0 99.66 0 151 0 C151 11.22 151 22.44 151 34 C133.84 34.33 116.68 34.66 99 35 C98.67 82.85 98.34 130.7 98 180 C84.47 180 70.94 180 57 180 C56.67 132.15 56.34 84.3 56 35 C37.52 34.67 19.04 34.34 0 34 C0 22.78 0 11.56 0 0 Z " fill="#186A3E" transform="translate(204,573)"/>
<path d="M0 0 C13.53 0 27.06 0 41 0 C41.09063531 17.04745567 41.16417553 34.09470255 41.20724869 51.14233303 C41.22778855 59.05957666 41.25574286 66.97665888 41.30175781 74.89379883 C41.34189065 81.80223796 41.36749496 88.71056007 41.37635398 95.61911255 C41.38152451 99.27006638 41.39349274 102.92068573 41.42292023 106.5715313 C41.59827885 129.22607014 41.62523052 150.59279845 25.1171875 168.06640625 C11.33247646 180.65576412 -9.38050481 180.84640935 -26.92919922 180.22216797 C-39.44124775 179.31693946 -50.6137167 173.91381394 -59.25 164.8125 C-67.8517606 153.89581799 -71.66485136 140.73338968 -71 127 C-63.48475279 125.28481477 -56.05504917 124.44423815 -48.375 123.875 C-47.27542969 123.78863281 -46.17585937 123.70226562 -45.04296875 123.61328125 C-42.36234576 123.40349336 -39.68142918 123.19916992 -37 123 C-36.69707031 123.86882812 -36.39414062 124.73765625 -36.08203125 125.6328125 C-32.93722795 134.71310897 -32.93722795 134.71310897 -27 142 C-21.22886251 144.35120416 -15.79387681 145.00579565 -9.875 142.875 C-5.78643248 140.20854292 -2.81775172 137.61969752 -1.35075569 132.92012215 C0.04917082 126.0351987 0.27155579 119.40201249 0.22705078 112.39013672 C0.22734283 111.16948013 0.22763489 109.94882355 0.22793579 108.69117737 C0.22678907 105.3756594 0.21682526 102.06039689 0.20278788 98.74492407 C0.19020374 95.26828116 0.18910401 91.7916341 0.18673706 88.31497192 C0.1805447 81.74561074 0.16416459 75.17631688 0.14403808 68.60698521 C0.12160882 61.12202011 0.11066806 53.63705162 0.10064721 46.15206122 C0.07979611 30.7679953 0.04314828 15.384022 0 0 Z " fill="#1B6C41" transform="translate(597,573)"/>
<path d="M0 0 C0.33 0 0.66 0 1 0 C1 1.65 1 3.3 1 5 C6.51757479 5.02467609 12.03511761 5.04284856 17.55273438 5.05493164 C19.43066975 5.05996763 21.3086012 5.06679671 23.18652344 5.07543945 C25.88217132 5.08753713 28.57776747 5.09323557 31.2734375 5.09765625 C32.11619232 5.10281754 32.95894714 5.10797882 33.82723999 5.11329651 C38.04731361 5.23367039 38.04731361 5.23367039 42 4 C42 5.65 42 7.3 42 9 C27.15 9 12.3 9 -3 9 C-2.01 6.03 -1.02 3.06 0 0 Z " fill="#37754E" transform="translate(647,744)"/>
<path d="M0 0 C2 3 2 3 2 6 C-12.52 6 -27.04 6 -42 6 C-42.33 4.35 -42.66 2.7 -43 1 C-42.01 1 -41.02 1 -40 1 C-40 1.66 -40 2.32 -40 3 C-26.8 3 -13.6 3 0 3 C0 2.01 0 1.02 0 0 Z " fill="#36744D" transform="translate(826,747)"/>
<path d="M0 0 C0.66 0 1.32 0 2 0 C2 10.89 2 21.78 2 33 C29.225 32.505 29.225 32.505 57 32 C57 32.99 57 33.98 57 35 C38.19 34.67 19.38 34.34 0 34 C0 22.78 0 11.56 0 0 Z " fill="#4D7B57" transform="translate(204,573)"/>
<path d="M0 0 C0.33 0 0.66 0 1 0 C1 4.29 1 8.58 1 13 C0.67 13 0.34 13 0 13 C-0.33 21.58 -0.66 30.16 -1 39 C-3.50256808 36.49743192 -3.25666867 35.6860109 -3.265625 32.23046875 C-3.26957275 31.26447754 -3.27352051 30.29848633 -3.27758789 29.30322266 C-3.26848389 28.27503418 -3.25937988 27.2468457 -3.25 26.1875 C-3.24540771 25.14899902 -3.24081543 24.11049805 -3.23608398 23.04052734 C-3.00007491 3.00007491 -3.00007491 3.00007491 0 0 Z " fill="#F94236" transform="translate(382,295)"/>
<path d="M0 0 C0.33 0 0.66 0 1 0 C2.15258201 4.58288562 2.15225889 8.99604995 2.125 13.6875 C2.12306641 14.48462402 2.12113281 15.28174805 2.11914062 16.10302734 C2.07749016 21.79178723 1.72858578 27.35346022 1 33 C-0.87811519 29.80948379 -1.24719862 27.47160303 -1.23046875 23.7890625 C-1.22853516 22.79132813 -1.22660156 21.79359375 -1.22460938 20.765625 C-1.21236328 19.72921875 -1.20011719 18.6928125 -1.1875 17.625 C-1.18685547 16.59632813 -1.18621094 15.56765625 -1.18554688 14.5078125 C-1.1569117 9.56983643 -1.04177743 4.85051573 0 0 Z " fill="#FA4E43" transform="translate(643,309)"/>
<path d="M0 0 C-2.56710516 1.28355258 -4.31195967 1.0818427 -7.18408203 1.02172852 C-8.26505157 1.00163223 -9.34602112 0.98153595 -10.45974731 0.96083069 C-11.63060883 0.93379562 -12.80147034 0.90676056 -14.0078125 0.87890625 C-15.20356903 0.85529526 -16.39932556 0.83168427 -17.63131714 0.80735779 C-21.46266154 0.73058708 -25.29381059 0.64662032 -29.125 0.5625 C-31.71743825 0.50929275 -34.30988613 0.45655228 -36.90234375 0.40429688 C-43.26835088 0.27495381 -49.63421213 0.13969726 -56 0 C-56 -0.33 -56 -0.66 -56 -1 C-48.34648417 -1.19324454 -40.69272105 -1.37073591 -33.03857422 -1.53710938 C-30.43302072 -1.59562461 -27.82754658 -1.65778939 -25.22216797 -1.72363281 C-21.48419645 -1.8174731 -17.74613897 -1.89832322 -14.0078125 -1.9765625 C-12.83695099 -2.00875885 -11.66608948 -2.0409552 -10.45974731 -2.0741272 C-9.37877777 -2.09429901 -8.29780823 -2.11447083 -7.18408203 -2.13525391 C-6.22921906 -2.15746002 -5.27435608 -2.17966614 -4.29055786 -2.20254517 C-2 -2 -2 -2 0 0 Z " fill="#408560" transform="translate(262,607)"/>
<path d="M0 0 C0.66 0.33 1.32 0.66 2 1 C0.8553125 1.5878125 0.8553125 1.5878125 -0.3125 2.1875 C-3.24716071 4.16668978 -4.40126898 5.8866817 -6 9 C-6.6875 7.1875 -6.6875 7.1875 -7 5 C-5.16150909 2.48417034 -2.88689962 1.11750953 0 0 Z " fill="#F94838" transform="translate(413,237)"/>
<path d="M0 0 C2 1 2 1 2.8515625 3.28515625 C3.10679687 4.20167969 3.36203125 5.11820313 3.625 6.0625 C3.88539063 6.98160156 4.14578125 7.90070312 4.4140625 8.84765625 C4.60742188 9.55792969 4.80078125 10.26820313 5 11 C4.34 11 3.68 11 3 11 C2.49384702 9.73160474 1.99530901 8.46016898 1.5 7.1875 C1.2215625 6.47980469 0.943125 5.77210938 0.65625 5.04296875 C0 3 0 3 0 0 Z " fill="#337246" transform="translate(474,625)"/>
<path d="M0 0 C2 1 2 1 2.8515625 3.28515625 C3.10679687 4.20167969 3.36203125 5.11820313 3.625 6.0625 C3.88539063 6.98160156 4.14578125 7.90070312 4.4140625 8.84765625 C4.60742188 9.55792969 4.80078125 10.26820313 5 11 C4.34 11 3.68 11 3 11 C2.49384702 9.73160474 1.99530901 8.46016898 1.5 7.1875 C1.2215625 6.47980469 0.943125 5.77210938 0.65625 5.04296875 C0 3 0 3 0 0 Z " fill="#326F45" transform="translate(467,606)"/>
<path d="M0 0 C2.31 1.98 4.62 3.96 7 6 C6.34 6.66 5.68 7.32 5 8 C2.5 5.6875 2.5 5.6875 0 3 C0 2.01 0 1.02 0 0 Z " fill="#497F5A" transform="translate(537,734)"/>
<path d="M0 0 C0.66 0 1.32 0 2 0 C3.32 2.64 4.64 5.28 6 8 C5.01 8.495 5.01 8.495 4 9 C0 2.25 0 2.25 0 0 Z " fill="#FB5041" transform="translate(399,394)"/>
<path d="M0 0 C2 3 2 3 1.75 5.0625 C1 7 1 7 -1 9 C-2.0326802 6.21176345 -2.04509293 5.1322726 -1.0625 2.25 C-0.711875 1.5075 -0.36125 0.765 0 0 Z " fill="#FA4636" transform="translate(571,347)"/>
<path d="M0 0 C4 6 4 6 4 10 C3.34 10 2.68 10 2 10 C0.68373308 6.38026598 0 3.90432869 0 0 Z " fill="#317045" transform="translate(483,648)"/>
<path d="M0 0 C0.33 0 0.66 0 1 0 C1 2.64 1 5.28 1 8 C0.67 8 0.34 8 0 8 C0 5.36 0 2.72 0 0 Z " fill="#EEEEEE" transform="translate(908,259)"/>
<path d="M0 0 C0.33 0 0.66 0 1 0 C1 1.65 1 3.3 1 5 C0.67 5 0.34 5 0 5 C0 3.35 0 1.7 0 0 Z " fill="#EFEFEF" transform="translate(907,252)"/>
<path d="M0 0 C1 4 1 4 1 4 Z " fill="#EEEFEF" transform="translate(906,247)"/>
<path d="M0 0 C0.66 0 1.32 0 2 0 C1.67 0.66 1.34 1.32 1 2 C0.67 1.34 0.34 0.68 0 0 Z " fill="#F1F0F1" transform="translate(195,912)"/>
<path d="" fill="#EFEFEF" transform="translate(0,0)"/>
<path d="" fill="#F0EFF0" transform="translate(0,0)"/>
<path d="" fill="#EEEEEE" transform="translate(0,0)"/>
<path d="" fill="#EEEDEE" transform="translate(0,0)"/>
<path d="" fill="#EEEEEE" transform="translate(0,0)"/>
<path d="" fill="#F0EFF0" transform="translate(0,0)"/>
<path d="" fill="#F0EFEF" transform="translate(0,0)"/>
<path d="" fill="#F0EFF0" transform="translate(0,0)"/>
<path d="M0 0 C2 1 2 1 2 1 Z " fill="#F1F1F0" transform="translate(554,934)"/>
<path d="" fill="#F0F1F1" transform="translate(0,0)"/>
<path d="" fill="#F1F1F1" transform="translate(0,0)"/>
<path d="M0 0 C2 1 2 1 2 1 Z " fill="#F0F1F0" transform="translate(869,878)"/>
<path d="M0 0 C2 1 2 1 2 1 Z " fill="#F1F0F1" transform="translate(914,721)"/>
<path d="" fill="#F0F1F1" transform="translate(0,0)"/>
<path d="" fill="#F0F1F0" transform="translate(0,0)"/>
<path d="" fill="#F0F1F1" transform="translate(0,0)"/>
<path d="" fill="#F0F1F0" transform="translate(0,0)"/>
<path d="" fill="#F0F1F0" transform="translate(0,0)"/>
<path d="M0 0 C2 1 2 1 2 1 Z " fill="#F0F2F1" transform="translate(105,540)"/>
<path d="" fill="#F0F0F1" transform="translate(0,0)"/>
<path d="" fill="#F0F1F1" transform="translate(0,0)"/>
<path d="" fill="#F2F0F2" transform="translate(0,0)"/>
<path d="M0 0 C2 1 2 1 2 1 Z " fill="#F1F0F2" transform="translate(108,272)"/>
<path d="" fill="#EFF1F2" transform="translate(0,0)"/>
<path d="" fill="#EFF1F2" transform="translate(0,0)"/>
<path d="" fill="#F0F0EF" transform="translate(0,0)"/>
<path d="" fill="#F1F0F0" transform="translate(0,0)"/>
<path d="" fill="#F2F2F0" transform="translate(0,0)"/>
<path d="" fill="#F2F0F1" transform="translate(0,0)"/>
<path d="" fill="#F1F0F1" transform="translate(0,0)"/>
<path d="" fill="#F1F0F2" transform="translate(0,0)"/>
<path d="" fill="#F2F2F0" transform="translate(0,0)"/>
<path d="" fill="#F2F0F3" transform="translate(0,0)"/>
<path d="" fill="#F1F0F2" transform="translate(0,0)"/>
<path d="" fill="#F0F1F2" transform="translate(0,0)"/>
<path d="" fill="#F1F1F0" transform="translate(0,0)"/>
<path d="" fill="#F0F2F1" transform="translate(0,0)"/>
<path d="" fill="#F2F0F2" transform="translate(0,0)"/>
<path d="" fill="#F0F1F2" transform="translate(0,0)"/>
<path d="" fill="#F2F0F2" transform="translate(0,0)"/>
<path d="" fill="#F0F2F1" transform="translate(0,0)"/>
<path d="" fill="#F2F0F1" transform="translate(0,0)"/>
<path d="" fill="#F1F1F0" transform="translate(0,0)"/>
<path d="" fill="#F1F0F2" transform="translate(0,0)"/>
<path d="" fill="#F1F2F0" transform="translate(0,0)"/>
<path d="" fill="#F0F2F1" transform="translate(0,0)"/>
<path d="" fill="#F1F1F0" transform="translate(0,0)"/>
<path d="" fill="#F0F1F1" transform="translate(0,0)"/>
<path d="" fill="#F0F1F1" transform="translate(0,0)"/>
<path d="" fill="#F0F2F3" transform="translate(0,0)"/>
<path d="" fill="#F2F0F2" transform="translate(0,0)"/>
<path d="" fill="#F2F0F1" transform="translate(0,0)"/>
<path d="" fill="#F2F1F0" transform="translate(0,0)"/>
<path d="" fill="#F0F1F1" transform="translate(0,0)"/>
<path d="" fill="#F0F1F1" transform="translate(0,0)"/>
<path d="" fill="#F2F0F3" transform="translate(0,0)"/>
<path d="" fill="#F2F2F0" transform="translate(0,0)"/>
<path d="" fill="#F0F1F1" transform="translate(0,0)"/>
<path d="" fill="#F0F3F1" transform="translate(0,0)"/>
<path d="" fill="#F2F0F0" transform="translate(0,0)"/>
<path d="" fill="#F0F1F3" transform="translate(0,0)"/>
<path d="" fill="#F1F3F0" transform="translate(0,0)"/>
<path d="" fill="#F0F1F1" transform="translate(0,0)"/>
<path d="" fill="#F3F0F2" transform="translate(0,0)"/>
<path d="" fill="#F0F1F1" transform="translate(0,0)"/>
<path d="" fill="#F0F0F1" transform="translate(0,0)"/>
<path d="" fill="#F2F0F1" transform="translate(0,0)"/>
<path d="" fill="#F0F1F2" transform="translate(0,0)"/>
<path d="" fill="#F0F3F2" transform="translate(0,0)"/>
<path d="" fill="#F2F0F2" transform="translate(0,0)"/>
<path d="" fill="#F2F0F1" transform="translate(0,0)"/>
<path d="" fill="#F0F2F0" transform="translate(0,0)"/>
<path d="" fill="#F2F1F0" transform="translate(0,0)"/>
<path d="" fill="#F0F2F2" transform="translate(0,0)"/>
<path d="" fill="#F2F1F0" transform="translate(0,0)"/>
<path d="" fill="#F0F1F1" transform="translate(0,0)"/>
<path d="" fill="#F0F0F1" transform="translate(0,0)"/>
<path d="" fill="#F0F1F1" transform="translate(0,0)"/>
<path d="" fill="#F2F1F0" transform="translate(0,0)"/>
<path d="" fill="#F0F1F2" transform="translate(0,0)"/>
<path d="" fill="#F1F0F2" transform="translate(0,0)"/>
<path d="" fill="#F1F1F0" transform="translate(0,0)"/>
<path d="" fill="#F0F0F2" transform="translate(0,0)"/>
<path d="" fill="#F1F0F1" transform="translate(0,0)"/>
<path d="" fill="#F0F1F1" transform="translate(0,0)"/>
<path d="" fill="#F2F1F0" transform="translate(0,0)"/>
<path d="" fill="#F1F1F0" transform="translate(0,0)"/>
<path d="" fill="#F2F0F1" transform="translate(0,0)"/>
<path d="" fill="#EFF0F0" transform="translate(0,0)"/>
<path d="" fill="#F1F1F0" transform="translate(0,0)"/>
<path d="" fill="#F0F2F1" transform="translate(0,0)"/>
<path d="" fill="#F2F0F2" transform="translate(0,0)"/>
<path d="" fill="#F0F2F2" transform="translate(0,0)"/>
<path d="" fill="#F0F0F2" transform="translate(0,0)"/>
<path d="" fill="#F2F2F0" transform="translate(0,0)"/>
<path d="" fill="#F0F3F1" transform="translate(0,0)"/>
<path d="" fill="#F2F1F0" transform="translate(0,0)"/>
<path d="" fill="#F0F1F1" transform="translate(0,0)"/>
<path d="" fill="#F2F2F0" transform="translate(0,0)"/>
<path d="" fill="#F2F0F1" transform="translate(0,0)"/>
<path d="" fill="#F0F2F0" transform="translate(0,0)"/>
<path d="" fill="#F1F2F0" transform="translate(0,0)"/>
<path d="" fill="#F0F1F2" transform="translate(0,0)"/>
<path d="" fill="#F0F1F3" transform="translate(0,0)"/>
<path d="" fill="#F0F0F2" transform="translate(0,0)"/>
<path d="" fill="#F1F0F1" transform="translate(0,0)"/>
<path d="" fill="#F1F0F1" transform="translate(0,0)"/>
<path d="" fill="#F0F2F2" transform="translate(0,0)"/>
<path d="" fill="#F0F1F1" transform="translate(0,0)"/>
<path d="" fill="#F2F0F2" transform="translate(0,0)"/>
<path d="" fill="#F0F2F1" transform="translate(0,0)"/>
<path d="" fill="#F0F2F1" transform="translate(0,0)"/>
<path d="" fill="#F0F0F0" transform="translate(0,0)"/>
<path d="" fill="#F1F1F0" transform="translate(0,0)"/>
<path d="" fill="#F1F0F1" transform="translate(0,0)"/>
<path d="" fill="#F2F0F2" transform="translate(0,0)"/>
<path d="" fill="#F1F0F1" transform="translate(0,0)"/>
<path d="" fill="#F2F0F0" transform="translate(0,0)"/>
<path d="" fill="#F0F3F2" transform="translate(0,0)"/>
<path d="" fill="#F1F1F0" transform="translate(0,0)"/>
<path d="" fill="#F1F1F0" transform="translate(0,0)"/>
<path d="" fill="#F0F1F2" transform="translate(0,0)"/>
<path d="" fill="#F1F0F1" transform="translate(0,0)"/>
<path d="" fill="#EFF0F1" transform="translate(0,0)"/>
<path d="" fill="#F1F0F1" transform="translate(0,0)"/>
<path d="" fill="#F1F1F0" transform="translate(0,0)"/>
<path d="" fill="#F2F0F2" transform="translate(0,0)"/>
<path d="" fill="#F0F1F2" transform="translate(0,0)"/>
<path d="" fill="#F0F1F1" transform="translate(0,0)"/>
<path d="" fill="#F2F0F2" transform="translate(0,0)"/>
<path d="" fill="#F1F0F0" transform="translate(0,0)"/>
<path d="" fill="#F1F0F3" transform="translate(0,0)"/>
<path d="" fill="#F0F2F2" transform="translate(0,0)"/>
<path d="" fill="#F0F2F1" transform="translate(0,0)"/>
<path d="" fill="#F1F0F1" transform="translate(0,0)"/>
<path d="" fill="#F1F0F1" transform="translate(0,0)"/>
<path d="" fill="#F0F1F1" transform="translate(0,0)"/>
<path d="" fill="#F2F2F0" transform="translate(0,0)"/>
<path d="" fill="#F1F0F2" transform="translate(0,0)"/>
<path d="" fill="#F0F1F1" transform="translate(0,0)"/>
<path d="" fill="#F1F1F0" transform="translate(0,0)"/>
<path d="" fill="#F2F0F3" transform="translate(0,0)"/>
<path d="" fill="#F0F1F1" transform="translate(0,0)"/>
<path d="" fill="#F0F1F2" transform="translate(0,0)"/>
<path d="" fill="#F0F1F1" transform="translate(0,0)"/>
<path d="" fill="#F1F1F0" transform="translate(0,0)"/>
<path d="" fill="#F1F1F0" transform="translate(0,0)"/>
<path d="" fill="#F0F1F0" transform="translate(0,0)"/>
<path d="" fill="#F1F0F2" transform="translate(0,0)"/>
<path d="" fill="#F0F1F2" transform="translate(0,0)"/>
<path d="" fill="#F2F0F2" transform="translate(0,0)"/>
<path d="" fill="#F2F0F2" transform="translate(0,0)"/>
<path d="" fill="#F2F1F0" transform="translate(0,0)"/>
<path d="" fill="#F2F2F0" transform="translate(0,0)"/>
<path d="" fill="#F1F1F0" transform="translate(0,0)"/>
<path d="" fill="#F1F1F0" transform="translate(0,0)"/>
<path d="" fill="#F2F2F0" transform="translate(0,0)"/>
<path d="" fill="#F1F0F0" transform="translate(0,0)"/>
<path d="" fill="#F1F0F1" transform="translate(0,0)"/>
<path d="" fill="#F1F1F0" transform="translate(0,0)"/>
<path d="" fill="#F2F0F3" transform="translate(0,0)"/>
<path d="" fill="#F0F1F2" transform="translate(0,0)"/>
<path d="" fill="#F2F0F2" transform="translate(0,0)"/>
<path d="" fill="#F1F0F1" transform="translate(0,0)"/>
<path d="" fill="#F2F0F1" transform="translate(0,0)"/>
<path d="" fill="#F2F1F0" transform="translate(0,0)"/>
<path d="" fill="#F0F2F1" transform="translate(0,0)"/>
<path d="" fill="#F1F1F0" transform="translate(0,0)"/>
<path d="" fill="#F0F0F1" transform="translate(0,0)"/>
<path d="" fill="#F1F0F1" transform="translate(0,0)"/>
<path d="" fill="#F1F2F0" transform="translate(0,0)"/>
<path d="" fill="#F0F1F2" transform="translate(0,0)"/>
<path d="" fill="#F3F3F0" transform="translate(0,0)"/>
<path d="" fill="#F0F1F2" transform="translate(0,0)"/>
<path d="" fill="#F0F1F1" transform="translate(0,0)"/>
<path d="" fill="#F0F2F2" transform="translate(0,0)"/>
<path d="" fill="#F0F1F2" transform="translate(0,0)"/>
<path d="" fill="#F1F0F0" transform="translate(0,0)"/>
<path d="" fill="#F1F0F1" transform="translate(0,0)"/>
<path d="" fill="#F0F2F2" transform="translate(0,0)"/>
<path d="" fill="#F1F0F1" transform="translate(0,0)"/>
<path d="" fill="#F1F0F0" transform="translate(0,0)"/>
<path d="" fill="#F0F3F3" transform="translate(0,0)"/>
</svg>
